<svg width="19" height="13" viewBox="0 0 19 13" fill="none" xmlns="http://www.w3.org/2000/svg">
<path d="M17.2143 0H1.78571C1.44472 0 1.1177 0.136964 0.876577 0.380761C0.635459 0.624558 0.5 0.955218 0.5 1.3V11.7C0.5 12.0448 0.635459 12.3754 0.876577 12.6192C1.1177 12.863 1.44472 13 1.78571 13H17.2143C17.5553 13 17.8823 12.863 18.1234 12.6192C18.3645 12.3754 18.5 12.0448 18.5 11.7V1.3C18.5 0.955218 18.3645 0.624558 18.1234 0.380761C17.8823 0.136964 17.5553 0 17.2143 0ZM15.8 1.3L9.5 5.707L3.2 1.3H15.8ZM1.78571 11.7V1.8915L9.13357 7.033C9.24118 7.10848 9.36903 7.14893 9.5 7.14893C9.63097 7.14893 9.75882 7.10848 9.86643 7.033L17.2143 1.8915V11.7H1.78571Z" fill="#FCD536"/>
</svg>
