<svg width="17" height="22" viewBox="0 0 17 22" fill="none" xmlns="http://www.w3.org/2000/svg">
<path d="M4.51127 0.116531L3.51292 0.413616C2.62398 0.678418 1.83012 1.18855 1.22478 1.88396C0.61944 2.57937 0.227807 3.43113 0.0959784 4.33898C-0.317563 7.18329 0.606988 10.509 2.83622 14.3229C5.05987 18.1273 7.50771 20.5782 10.202 21.651C11.0677 21.9956 12.0154 22.0875 12.9323 21.9156C13.8493 21.7437 14.6971 21.3153 15.3747 20.6814L16.1294 19.9744C16.6195 19.5163 16.9245 18.898 16.9877 18.2344C17.051 17.5709 16.8682 16.9072 16.4733 16.3668L14.5853 13.781C14.33 13.4319 13.9705 13.1705 13.5573 13.0334C13.144 12.8962 12.6977 12.8903 12.2808 13.0163L9.42504 13.8787L9.35124 13.8924C9.03656 13.9378 8.30973 13.2653 7.40467 11.7166C6.45784 10.0964 6.2629 9.14872 6.52328 8.9039L7.97555 7.56564C8.50663 7.07664 8.86941 6.43568 9.01299 5.73269C9.15658 5.02969 9.07377 4.29993 8.77618 3.64578L7.85441 1.62258C7.57724 1.01376 7.08539 0.525267 6.47055 0.248173C5.85571 -0.0289207 5.15984 -0.0757087 4.51266 0.116531H4.51127ZM6.58594 2.18649L7.50492 4.20969C7.68389 4.602 7.73394 5.03983 7.64803 5.46168C7.56212 5.88352 7.34456 6.26818 7.02594 6.56161L5.56949 7.90124C4.63798 8.77324 4.94709 10.2614 6.20024 12.4043C7.37821 14.4206 8.45314 15.4164 9.60883 15.2431L9.78149 15.2073L12.6888 14.3312C12.8278 14.289 12.9766 14.2909 13.1145 14.3365C13.2523 14.3822 13.3722 14.4693 13.4574 14.5856L15.3455 17.1714C15.5432 17.4416 15.6348 17.7735 15.6033 18.1054C15.5718 18.4374 15.4193 18.7467 15.1742 18.9759L14.4182 19.6828C13.9341 20.1354 13.3287 20.4411 12.6738 20.5638C12.019 20.6864 11.3423 20.6208 10.7241 20.3747C8.35985 19.4339 6.12506 17.1961 4.04342 13.6352C1.95622 10.0661 1.11104 7.03062 1.47445 4.53428C1.56852 3.88569 1.84824 3.27715 2.28068 2.78031C2.71311 2.28347 3.28025 1.91902 3.91532 1.72986L4.91367 1.43278C5.23734 1.33671 5.58534 1.3602 5.89278 1.49888C6.20021 1.63756 6.44608 1.88195 6.58455 2.18649H6.58594Z" fill="#FCD536"/>
</svg>
