<svg width="42" height="42" viewBox="0 0 42 42" fill="none" xmlns="http://www.w3.org/2000/svg">
<path d="M21 0C9.6159 0 0 9.6159 0 21C0 32.3841 9.6159 42 21 42C32.3841 42 42 32.3841 42 21C42 9.6159 32.3841 0 21 0ZM21 10.5C24.6267 10.5 27.3 13.1712 27.3 16.8C27.3 20.4288 24.6267 23.1 21 23.1C17.3754 23.1 14.7 20.4288 14.7 16.8C14.7 13.1712 17.3754 10.5 21 10.5ZM10.2774 31.0212C12.1611 28.2492 15.3027 26.4012 18.9 26.4012H23.1C26.6994 26.4012 29.8389 28.2492 31.7226 31.0212C29.0388 33.894 25.2315 35.7 21 35.7C16.7685 35.7 12.9612 33.894 10.2774 31.0212Z" fill="#FDD536"/>
</svg>
