<svg width="19" height="17" viewBox="0 0 19 17" fill="none" xmlns="http://www.w3.org/2000/svg">
<path d="M18.0897 0.304568C17.9261 0.156438 17.7271 0.057601 17.5139 0.0186386C17.3007 -0.0203239 17.0814 0.00205459 16.8795 0.0833786L1.2568 6.49788C1.01709 6.59496 0.814091 6.77092 0.678426 6.9992C0.542762 7.22748 0.481794 7.49569 0.504724 7.76337C0.527653 8.03105 0.633234 8.28367 0.805538 8.48312C0.977841 8.68256 1.20752 8.81802 1.45991 8.86903L5.56445 9.72725V15.0535C5.56473 15.2975 5.63396 15.5361 5.76344 15.7391C5.89293 15.9422 6.0769 16.1007 6.29227 16.1948C6.43749 16.2567 6.59247 16.2897 6.74927 16.2922C6.905 16.2931 7.05935 16.2616 7.20324 16.1993C7.34713 16.137 7.47764 16.0452 7.58711 15.9294L9.8975 13.514L13.3504 16.6903C13.5643 16.8908 13.8417 17.0011 14.129 17C14.2528 17.001 14.3758 16.9801 14.4929 16.938C14.6883 16.8731 14.8639 16.7555 15.0021 16.5971C15.1403 16.4387 15.2361 16.245 15.28 16.0356L18.4705 1.51669C18.5182 1.29754 18.5079 1.06895 18.4408 0.855425C18.3737 0.641899 18.2524 0.451479 18.0897 0.304568ZM1.52761 7.66576C1.5217 7.62846 1.52866 7.59018 1.54727 7.55776C1.56588 7.52534 1.59491 7.5009 1.62917 7.48881L14.7045 2.11832L5.95375 8.72747L1.66302 7.82502C1.62562 7.82064 1.59109 7.80195 1.56609 7.77255C1.54109 7.74314 1.52738 7.7051 1.52761 7.66576ZM6.86775 15.1774C6.84428 15.2031 6.81362 15.2204 6.78017 15.2267C6.74671 15.2331 6.71219 15.2282 6.68157 15.2127C6.65181 15.1992 6.62642 15.177 6.60841 15.1487C6.59041 15.1205 6.58055 15.0874 6.58001 15.0535V10.4616L9.12737 12.8151L6.86775 15.1774ZM14.2982 15.7967C14.2925 15.8274 14.279 15.8559 14.2592 15.8794C14.2395 15.9029 14.2141 15.9205 14.1857 15.9303C14.1573 15.9402 14.1269 15.9421 14.0976 15.9357C14.0684 15.9293 14.0412 15.9149 14.019 15.894L6.88468 9.3291L17.4634 1.34858L14.2982 15.7967Z" fill="#FCD536"/>
</svg>
