<svg width="25" height="25" viewBox="0 0 25 25" fill="none" xmlns="http://www.w3.org/2000/svg">
<path d="M17.7751 8H16.4522C16.1645 8 15.8909 8.13869 15.7217 8.37644L11.2877 14.5467L9.2794 11.7502C9.11017 11.5153 8.83939 11.3738 8.54887 11.3738H7.22601C7.04267 11.3738 6.93548 11.5833 7.04267 11.7333L10.5571 16.6241C10.6402 16.7404 10.7496 16.8352 10.8764 16.9005C11.0032 16.9659 11.1437 17 11.2863 17C11.4288 17 11.5693 16.9659 11.6961 16.9005C11.8229 16.8352 11.9324 16.7404 12.0154 16.6241L17.9556 8.35946C18.0656 8.20945 17.9584 8 17.7751 8Z" fill="#FDD536"/>
<path d="M12.5 0C5.5971 0 0 5.5971 0 12.5C0 19.4029 5.5971 25 12.5 25C19.4029 25 25 19.4029 25 12.5C25 5.5971 19.4029 0 12.5 0ZM12.5 22.8795C6.76897 22.8795 2.12054 18.231 2.12054 12.5C2.12054 6.76897 6.76897 2.12054 12.5 2.12054C18.231 2.12054 22.8795 6.76897 22.8795 12.5C22.8795 18.231 18.231 22.8795 12.5 22.8795Z" fill="#FDD536"/>
</svg>
