<svg width="20" height="20" viewBox="0 0 20 20" fill="none" xmlns="http://www.w3.org/2000/svg">
<path d="M10 0C8.02219 0 6.08879 0.58649 4.4443 1.6853C2.79981 2.78412 1.51809 4.3459 0.761209 6.17316C0.00433284 8.00042 -0.1937 10.0111 0.192152 11.9509C0.578004 13.8907 1.53041 15.6725 2.92894 17.0711C4.32746 18.4696 6.10929 19.422 8.0491 19.8078C9.98891 20.1937 11.9996 19.9957 13.8268 19.2388C15.6541 18.4819 17.2159 17.2002 18.3147 15.5557C19.4135 13.9112 20 11.9778 20 10C20 8.68678 19.7413 7.38642 19.2388 6.17316C18.7362 4.95991 17.9997 3.85752 17.0711 2.92893C16.1425 2.00035 15.0401 1.26375 13.8268 0.761204C12.6136 0.258658 11.3132 0 10 0ZM10 18C8.41775 18 6.87103 17.5308 5.55544 16.6518C4.23985 15.7727 3.21447 14.5233 2.60897 13.0615C2.00347 11.5997 1.84504 9.99112 2.15372 8.43927C2.4624 6.88743 3.22433 5.46196 4.34315 4.34314C5.46197 3.22432 6.88743 2.4624 8.43928 2.15372C9.99113 1.84504 11.5997 2.00346 13.0615 2.60896C14.5233 3.21446 15.7727 4.23984 16.6518 5.55544C17.5308 6.87103 18 8.41775 18 10C18 12.1217 17.1571 14.1566 15.6569 15.6568C14.1566 17.1571 12.1217 18 10 18Z" fill="#FBD539"/>
<path d="M9.99334 4.00007C8.93424 4.00007 7.91852 4.36881 7.16962 5.02519C6.42073 5.68156 6 6.57179 6 7.50004C6 7.76526 6.12021 8.01961 6.33418 8.20714C6.54815 8.39468 6.83836 8.50003 7.14096 8.50003C7.44356 8.50003 7.73376 8.39468 7.94773 8.20714C8.1617 8.01961 8.28191 7.76526 8.28191 7.50004C8.28191 7.20337 8.38228 6.91336 8.57034 6.66669C8.75839 6.42002 9.02568 6.22776 9.33841 6.11423C9.65113 6.0007 9.99524 5.971 10.3272 6.02887C10.6592 6.08675 10.9642 6.22961 11.2035 6.43939C11.4429 6.64917 11.6059 6.91644 11.6719 7.20741C11.7379 7.49838 11.704 7.79998 11.5745 8.07406C11.445 8.34815 11.2256 8.58242 10.9442 8.74724C10.6627 8.91206 10.3318 9.00003 9.99334 9.00003C9.69074 9.00003 9.40054 9.10539 9.18657 9.29292C8.9726 9.48046 8.85239 9.73481 8.85239 10V12C8.85239 12.2652 8.9726 12.5196 9.18657 12.7071C9.40054 12.8946 9.69074 13 9.99334 13C10.2959 13 10.5861 12.8946 10.8001 12.7071C11.0141 12.5196 11.1343 12.2652 11.1343 12V10.84C12.0563 10.604 12.8499 10.0839 13.3688 9.37547C13.8878 8.66705 14.0971 7.81811 13.9581 6.98511C13.8192 6.15211 13.3413 5.39121 12.6127 4.84265C11.8841 4.29409 10.9538 3.99484 9.99334 4.00007Z" fill="#FBD539"/>
<path d="M10 16C10.5523 16 11 15.5523 11 15C11 14.4477 10.5523 14 10 14C9.44772 14 9 14.4477 9 15C9 15.5523 9.44772 16 10 16Z" fill="#FBD539"/>
</svg>
