<svg width="386" height="387" viewBox="0 0 386 387" fill="none" xmlns="http://www.w3.org/2000/svg">
<ellipse cx="365.086" cy="217.406" rx="20.9144" ry="20.6881" fill="#FDD536"/>
<ellipse cx="315.918" cy="67.1458" rx="20.9144" ry="20.6881" fill="#EDB612"/>
<ellipse cx="115.578" cy="40.2874" rx="20.9144" ry="20.6881" fill="#F2F2F3"/>
<ellipse cx="82.557" cy="320.484" rx="20.9144" ry="20.6881" fill="#6D7785"/>
<path d="M364.637 188.037C374.75 188.399 383.355 180.497 382.685 170.399C381.351 150.307 376.508 130.521 368.314 111.861C359.876 92.6476 348.043 74.9909 333.365 59.636C326.8 52.7678 315.928 53.2849 309.321 60.113C302.212 67.4595 302.804 79.2054 309.611 86.8318C319.881 98.3364 328.25 111.302 334.392 125.288C340.518 139.238 344.326 153.967 345.716 168.95C346.655 179.082 354.467 187.672 364.637 188.037Z" fill="url(#paint0_linear_465_96)"/>
<path d="M365.45 205.066C375.178 205.066 383.153 212.971 382.202 222.652C379.525 249.905 370.65 276.29 356.15 299.792C338.549 328.321 313.339 351.499 283.29 366.781C253.242 382.063 219.516 388.858 185.819 386.418C158.031 384.406 131.149 376.18 107.166 362.451C98.723 357.619 96.9292 346.519 102.63 338.637C108.249 330.868 119.035 329.174 127.451 333.767C146.161 343.979 166.942 350.112 188.39 351.665C215.63 353.637 242.893 348.144 267.183 335.791C291.473 323.438 311.852 304.701 326.08 281.639C337.206 263.607 344.234 243.476 346.771 222.637C347.946 212.98 355.722 205.066 365.45 205.066Z" fill="url(#paint1_linear_465_96)"/>
<path d="M293.318 46.5956C298.894 38.5807 296.89 27.4754 288.328 22.7828C262.81 8.79707 234.212 0.977643 204.883 0.0861951C175.543 -0.805588 146.503 5.2668 120.158 17.6853C111.335 21.8441 108.657 32.7934 113.722 41.1287C118.72 49.3514 129.376 51.9081 138.162 47.9853C158.691 38.8202 181.133 34.3636 203.797 35.0525C226.457 35.7412 248.576 41.5506 268.495 51.9421C277.028 56.3937 287.822 54.4962 293.318 46.5956Z" fill="url(#paint2_linear_465_96)"/>
<path d="M89.5965 55.0809C84.2022 47.2651 73.4577 45.1889 66.1196 51.2169C47.4139 66.5829 31.9436 85.5194 20.6682 106.957C6.73798 133.442 -0.357271 162.922 0.0138331 192.775C0.384937 222.628 8.21088 251.927 22.7952 278.065C34.6009 299.223 50.5387 317.778 69.6225 332.685C77.1057 338.531 87.7951 336.191 92.9942 328.245C98.2669 320.187 95.873 309.448 88.431 303.336C74.2304 291.675 62.3159 277.457 53.3476 261.384C41.543 240.228 35.2086 216.513 34.9083 192.35C34.6079 168.188 40.3508 144.326 51.626 122.889C60.1901 106.606 71.7442 92.1064 85.6465 80.1042C92.9386 73.8087 95.0686 63.0095 89.5965 55.0809Z" fill="url(#paint3_linear_465_96)"/>
<defs>
<linearGradient id="paint0_linear_465_96" x1="324.357" y1="81.3005" x2="355.275" y2="201.963" gradientUnits="userSpaceOnUse">
<stop stop-color="#EDB612"/>
<stop offset="1" stop-color="#EDB612" stop-opacity="0.2"/>
</linearGradient>
<linearGradient id="paint1_linear_465_96" x1="361.782" y1="235.554" x2="118.156" y2="334.292" gradientUnits="userSpaceOnUse">
<stop stop-color="#FDD536"/>
<stop offset="1" stop-color="#FDD536" stop-opacity="0.2"/>
</linearGradient>
<linearGradient id="paint2_linear_465_96" x1="119.982" y1="41.7395" x2="294.636" y2="42.1104" gradientUnits="userSpaceOnUse">
<stop stop-color="#F2F2F3"/>
<stop offset="1" stop-color="#F2F2F3" stop-opacity="0.2"/>
</linearGradient>
<linearGradient id="paint3_linear_465_96" x1="79.2546" y1="313.225" x2="81.7678" y2="50.0863" gradientUnits="userSpaceOnUse">
<stop stop-color="#6D7785"/>
<stop offset="1" stop-color="#6D7785" stop-opacity="0.2"/>
</linearGradient>
</defs>
</svg>
